<?xml version="1.0" encoding="UTF-8" standalone="no"?>
<svg
   xmlns:dc="http://purl.org/dc/elements/1.1/"
   xmlns:cc="http://creativecommons.org/ns#"
   xmlns:rdf="http://www.w3.org/1999/02/22-rdf-syntax-ns#"
   xmlns:svg="http://www.w3.org/2000/svg"
   xmlns="http://www.w3.org/2000/svg"
   xmlns:sodipodi="http://sodipodi.sourceforge.net/DTD/sodipodi-0.dtd"
   xmlns:inkscape="http://www.inkscape.org/namespaces/inkscape"
   version="1.1"
   id="svg2"
   xml:space="preserve"
   width="5333.3335"
   height="5333.3335"
   viewBox="0 0 5333.3335 5333.3335"
   sodipodi:docname="4000_3_07.eps"><metadata
     id="metadata8"><rdf:RDF><cc:Work
         rdf:about=""><dc:format>image/svg+xml</dc:format><dc:type
           rdf:resource="http://purl.org/dc/dcmitype/StillImage" /></cc:Work></rdf:RDF></metadata><defs
     id="defs6" /><sodipodi:namedview
     pagecolor="#ffffff"
     bordercolor="#666666"
     borderopacity="1"
     objecttolerance="10"
     gridtolerance="10"
     guidetolerance="10"
     inkscape:pageopacity="0"
     inkscape:pageshadow="2"
     inkscape:window-width="640"
     inkscape:window-height="480"
     id="namedview4" /><g
     id="g10"
     inkscape:groupmode="layer"
     inkscape:label="ink_ext_XXXXXX"
     transform="matrix(1.3333333,0,0,-1.3333333,0,5333.3333)"><g
       id="g12"
       transform="scale(0.1)"><path
         d="M 0,0 H 40000 V 40000 H 0 Z"
         style="fill:#cceeff;fill-opacity:1;fill-rule:nonzero;stroke:none"
         id="path14" /><path
         d="m 30186.3,18405.4 c 100,783.3 108,1377.9 -565.5,3050 -755.8,1876.6 257.4,2727.2 257.4,2727.2 l -541.9,-110.5 c 0,0 -595.9,-656.7 -447.7,-1876.5 36.5,-299.9 118.7,-592.2 234,-871.4 206.8,-500.6 693.4,-1853.4 413.7,-2918.8 h 650"
         style="fill:#37c11f;fill-opacity:1;fill-rule:nonzero;stroke:none"
         id="path16" /><path
         d="M 31358.2,28978.8 C 29788.9,28193 29242.9,26535.2 29432.8,24250.3 l 536.5,580.6 c -102.9,1661.8 217,2699.5 906.8,3479.8 l 482.1,668.1"
         style="fill:#37c11f;fill-opacity:1;fill-rule:nonzero;stroke:none"
         id="path18" /><path
         d="m 29400.3,24830.9 c -88.8,701.3 -442.3,1108.3 -442.3,1108.3 l -71.3,-400.5 c 0,0 124.6,-842.8 -21.4,-2911.4 l 535,2203.6"
         style="fill:#37c11f;fill-opacity:1;fill-rule:nonzero;stroke:none"
         id="path20" /><path
         d="m 33819.4,20422.2 c -326,522.5 -713.5,945 -1183,1233 443.5,1085 -546,1566 -1075.5,647.5 -67,-115.5 -126,-253 -174.5,-414 -239.5,75 -484.5,190 -711,314.5 -530,291.5 -956,635.5 -956,635.5 1301,-219 1236,866 569,1229.5 -247.5,135 -578,171 -952,4 536.5,1098 1558.5,1272 2810,623.5 740,752 1333.5,710 1846,324.5 312,-234 594,-595 860.5,-981.5 -635.5,-502.5 -333.5,-1116.5 283.5,-1266.5 151.5,-1231.5 -357.5,-1961.5 -1317,-2350"
         style="fill:#4cd137;fill-opacity:1;fill-rule:nonzero;stroke:none"
         id="path22" /><path
         d="m 29658.3,24321.5 c 189.5,262.2 422.8,440.1 696.7,530.6 141.6,46.8 295.3,70.1 459.4,70.1 258.2,0 542,-57.6 844.3,-171.6 -219.7,61.9 -429.4,93.3 -627.1,93.3 -457.4,0 -850.9,-167.6 -1158.5,-511.5 -15.6,0.6 -31.3,0.9 -47.2,0.9 -54.3,0 -110.2,-3.8 -167.6,-11.8 m 2881.5,314.7 c -45.7,31.7 -92.6,62 -140.3,91.4 -0.7,0.4 -1.4,0.9 -2.1,1.3 308.2,276.7 595.1,412.7 871.2,412.7 24.5,0 48.9,-1.1 73.2,-3.2 111.5,-9.7 220.2,-42.7 325.9,-93.8 -60.2,11.3 -121.5,17.3 -183.9,17.3 -286.9,0 -599.1,-125.2 -944,-425.7"
         style="fill:#b7edaf;fill-opacity:1;fill-rule:nonzero;stroke:none"
         id="path24" /><path
         d="m 34269.4,25805.2 c -565,727 -1157,1312 -1816.5,1550 -48,434 -308.5,618 -582,576 -231,-35.5 -471.5,-232.5 -601.5,-576 -843.5,546.5 -396.5,2033.5 1283.5,1850 579,578 1253.5,704 2100,15.5 -56,-69 -100,-134.5 -133.5,-195.5 -344.5,-629.5 438.5,-832.5 833.5,-620 190.5,-1334 -244.5,-2138 -1083.5,-2600"
         style="fill:#4cd137;fill-opacity:1;fill-rule:nonzero;stroke:none"
         id="path26" /><path
         d="m 31074.2,27790.2 c -84.6,175.6 -96,382.3 -23.2,587.1 124.5,350 508,694 1219,694 84.2,0 173.1,-4.8 266.7,-15 5.5,-0.6 11,-0.9 16.5,-0.9 39.5,0 77.5,15.7 105.7,43.8 292.8,292.3 590.5,438.3 904.4,438.3 208.6,0 424.4,-64.5 650.6,-193.5 -150.4,53.4 -294.8,78.7 -433.8,78.7 -370.3,0 -702.6,-179.2 -1008.2,-484 -96.7,10.6 -189.4,15.7 -277.9,15.7 -972.9,0 -1450.9,-608.4 -1419.8,-1164.2"
         style="fill:#b7edaf;fill-opacity:1;fill-rule:nonzero;stroke:none"
         id="path28" /><path
         d="m 28859.4,25471.7 c -63,-144 -158.5,-294.5 -290,-449.5 -523.5,1159 -1766.5,-326.5 -500,-833.5 -539.5,-429 -1256.5,-704.5 -2116.5,-856.5 0,375 -101.5,711.5 -217,1019 -164.5,435.5 -358,812 -333,1154 1016.5,150 800,967 200,1017 600,766.5 1254,676 1833.5,50 976,423.5 1816.5,-204.5 1423,-1100.5"
         style="fill:#4cd137;fill-opacity:1;fill-rule:nonzero;stroke:none"
         id="path30" /><path
         d="m 28774.6,26119.9 c -161.8,137.9 -387.6,217.6 -647.4,217.6 -189.6,0 -397.1,-42.3 -611.3,-135.3 -294,317.6 -607,497.4 -922.4,497.4 -186.1,0 -373,-62.6 -557.4,-196.4 -48,40 -102.4,74.2 -161.8,101.3 198.6,200.3 403.6,305.8 611.5,314.4 9.5,0.4 19.1,0.6 28.7,0.6 263.1,0 535.8,-151.2 811.7,-449.3 29,-31.4 69.2,-48.2 110.1,-48.2 20.2,0 40.5,4.1 59.7,12.5 201.5,87.4 387.6,124.5 552.2,124.5 295.8,0 522.3,-120 644,-284.1 35.6,-48.2 63,-100 82.4,-155"
         style="fill:#b7edaf;fill-opacity:1;fill-rule:nonzero;stroke:none"
         id="path32" /><path
         d="m 30861.3,17355.4 h -1916.7 c -289.9,0 -525,235 -525,525 0,289.9 235.1,525 525,525 h 1916.7 c 289.9,0 525,-235.1 525,-525 0,-290 -235.1,-525 -525,-525"
         style="fill:#9d48ff;fill-opacity:1;fill-rule:nonzero;stroke:none"
         id="path34" /><path
         d="m 30962.1,17364.8 c 0,0.1 0,0.2 0,0.3 241.7,47 424.2,259.8 424.2,515.3 0,138.7 -53.8,264.9 -141.7,358.7 87.9,-93.8 141.8,-220 141.8,-358.9 0,-145 -59,-276.5 -154,-371.5 -72.4,-72.4 -165.8,-123.6 -270.3,-143.9 m -2166.7,11.8 c -36.7,10.8 -71.7,25.5 -104.5,43.6 h 0.8 c 32.6,-17.9 67.4,-32.5 103.7,-43.3 0,-0.1 0,-0.2 0,-0.3"
         style="fill:#8ea6d4;fill-opacity:1;fill-rule:nonzero;stroke:none"
         id="path36" /><path
         d="m 30254.4,17356 h -953 c 0,0.1 0,0.1 0,0.2 h -207.3 c -0.1,1.9 -0.1,3.7 -0.2,5.5 -0.8,21 -5.8,40.7 -14.3,58.5 h 1219.3 c 145,0 276.5,58.5 371.5,153.5 95,95 153.5,226.5 153.5,371.5 0,157.5 -69.3,298.6 -178.9,395 -28.2,24.8 -59.1,46.7 -92.1,65 v 0 h 308.5 c 151.2,0 287.4,-63.8 383.2,-166.1 87.9,-93.8 141.7,-220 141.7,-358.7 0,-255.5 -182.5,-468.3 -424.2,-515.3 -4.5,76.1 -66.2,137.8 -144,140.8 -2,0.1 -3.9,0.1 -5.9,0.1 -81,0 -146.6,-63.4 -149.7,-144.3 -0.1,-1.8 -0.2,-3.6 -0.3,-5.5 h -407.8 c 0,-0.1 0,-0.1 0,-0.2 m -1459,20.9 c -36.3,10.8 -71.1,25.4 -103.7,43.3 h 116.7 c -6.4,-13.5 -10.8,-28 -13,-43.3"
         style="fill:#6e32d4;fill-opacity:1;fill-rule:nonzero;stroke:none"
         id="path38" /><path
         d="m 28690.9,17420.2 c -162,90 -271.5,262 -271.5,460 0,145 59,276.5 154,371.5 53.3,53.3 117.9,95.1 189.9,121.5 -200.6,-73.8 -343.7,-266.6 -343.7,-492.8 0,-197.8 109.4,-370.1 271,-459.6 0.1,-0.2 0.2,-0.4 0.3,-0.6"
         style="fill:#ebf8ff;fill-opacity:1;fill-rule:nonzero;stroke:none"
         id="path40" /><path
         d="m 28690.6,17420.8 c -161.6,89.5 -271,261.8 -271,459.6 0,226.2 143.1,419 343.7,492.8 56.4,20.7 117.4,32 181.1,32 h 1608.5 v 0 c 33,-18.4 63.9,-40.2 92.1,-65 52.3,-46.1 95.5,-102.6 126.4,-166 h -1608 c -145,0 -276,-58.5 -371,-153.5 -95,-95 -154,-226.5 -154,-371.5 0,-81.7 18.9,-159 52.2,-228.4"
         style="fill:#d8b6ff;fill-opacity:1;fill-rule:nonzero;stroke:none"
         id="path42" /><path
         d="m 30645,18340.2 c -28.2,24.8 -59.1,46.6 -92.1,65 33,-18.3 63.9,-40.2 92.1,-65"
         style="fill:#c5adee;fill-opacity:1;fill-rule:nonzero;stroke:none"
         id="path44" /><path
         d="m 28944,17356 c 86.1,-2245 0,-3922.2 -908.3,-5341.7 -610.6,-947 -795.6,-2586.3 -102.1,-3525.6 209.3,-283.5 545.5,-445.2 897.9,-445.2 h 2093.4 c 352.4,0 688.6,161.7 897.9,445.2 693.5,939.3 508.5,2578.6 -102.1,3525.6 -908.3,1419.5 -994.4,3096.7 -908.3,5341.7 H 28944"
         style="fill:#9d48ff;fill-opacity:1;fill-rule:nonzero;stroke:none"
         id="path46" /><path
         d="m 30662.2,17356 h -407.8 c 0,0.1 0,0.1 0,0.2 h 407.8 v -0.2"
         style="fill:#4d23b6;fill-opacity:1;fill-rule:nonzero;stroke:none"
         id="path48" /><path
         d="m 30924.9,8193.5 h -1607.8 c 180.1,123.9 335.9,282.2 457.3,467 275.1,25.4 535,149.8 722.5,358.7 779,869.5 749.5,2519 231.5,3519.5 -701.5,1364.4 -704,2877.5 -474,4817.3 h 407.8 c -90.5,-2370.4 33.3,-4017.9 932.4,-5422.9 581.9,-902.6 764,-2466.2 107.5,-3355.3 -177.7,-240.6 -468.2,-384.3 -777.2,-384.3"
         style="fill:#6e32d4;fill-opacity:1;fill-rule:nonzero;stroke:none"
         id="path50" /><path
         d="m 29301.4,17356 h -207.3 v 0.2 h 207.3 c 0,-0.1 0,-0.1 0,-0.2"
         style="fill:#c5adee;fill-opacity:1;fill-rule:nonzero;stroke:none"
         id="path52" /><path
         d="m 27847.7,10092.5 h -209.9 c 1.4,95.7 6.8,191.8 15.8,287.6 104.2,183.2 163.7,394.8 163.7,620.1 v 185.2 c 87.7,275.2 204.6,530.8 344.7,748.1 898.8,1404.6 1022.7,3052.1 932.1,5422.5 h 207.3 c 78.5,-2052.8 13.4,-3630.9 -693,-4971.3 -2.5,-4.5 -4.5,-9 -7.5,-13.5 221.5,-181.5 269.5,-534 99,-829 -132.4,-229.4 -361.1,-361.8 -582,-361.8 -32.8,0 -65.4,2.9 -97.5,8.8 -106.2,-348.2 -167.4,-724.9 -172.7,-1096.7"
         style="fill:#d8b6ff;fill-opacity:1;fill-rule:nonzero;stroke:none"
         id="path54" /><path
         d="m 28944.6,18255.4 c -206.8,0 -375,-168.2 -375,-375 0,-206.8 168.2,-375 375,-375 h 1916.7 c 206.8,0 375,168.2 375,375 0,206.8 -168.2,375 -375,375 z m 1916.7,-1050 h -1916.7 c -372.2,0 -675,302.8 -675,675 0,372.2 302.8,675 675,675 h 1916.7 c 372.2,0 675,-302.8 675,-675 0,-372.2 -302.8,-675 -675,-675"
         style="fill:#000072;fill-opacity:1;fill-rule:nonzero;stroke:none"
         id="path56" /><path
         d="m 30924.9,7893.5 h -2093.4 c -403.9,0 -784.6,189.2 -1018.5,506.1 -730.2,988.8 -539.5,2709.4 96.6,3696 856.9,1339.1 973.2,2940.7 884.5,5254.7 -3.2,82.7 61.4,152.4 144.2,155.6 82.9,3.2 152.4,-61.4 155.6,-144.2 91,-2373.4 -32.3,-4022.5 -931.9,-5428.2 -582.2,-903 -764.2,-2466.6 -107.7,-3355.7 177.6,-240.6 468.1,-384.3 777.2,-384.3 h 2093.4 c 309,0 599.5,143.7 777.2,384.3 656.5,889.1 474.4,2452.7 -107.5,3355.3 -899.8,1406.1 -1023.1,3055.2 -932.1,5428.6 3.1,82.8 72,147.4 155.6,144.2 82.8,-3.2 147.3,-72.9 144.2,-155.6 -88.8,-2314 27.6,-3915.6 884.7,-5255.1 635.9,-986.2 826.5,-2706.8 96.4,-3695.6 -233.9,-316.9 -614.7,-506.1 -1018.5,-506.1"
         style="fill:#000072;fill-opacity:1;fill-rule:nonzero;stroke:none"
         id="path58" /><path
         d="m 32818.9,21716.5 c 397.3,-265.7 745.2,-629.4 1058.5,-1106.5 847.7,385.5 1215.1,1056.5 1120.7,2045.9 -331.4,110.7 -569.5,346 -631.9,631.6 -35.3,161.5 -38.9,464.9 286.4,775.9 -371.1,523.4 -811.9,1031.7 -1310.8,1075 -340.9,29.9 -697,-149.5 -1088.7,-547.6 -46.1,-46.9 -117.5,-58.2 -175.8,-28 -662.2,342.8 -1257.7,442.9 -1722.3,289.3 -273.9,-90.5 -507.2,-268.4 -696.7,-530.6 427.5,59.9 774.4,-116 980.2,-338 264.6,-285.3 340.4,-665.9 188.7,-946.9 -72.4,-134.1 -240.8,-324.5 -620.1,-367.9 285.1,-194.1 688.8,-441 1085,-589 174.8,470.1 463.7,774.6 807,844.2 237.7,48.2 470,-32.5 621.5,-215.6 196.8,-237.9 230.9,-594.6 98.3,-991.8 M 33819.7,20272 c -50.5,0 -99.3,25.6 -127.4,70.7 -332.6,533.1 -703.7,920.7 -1134.4,1184.8 -62.7,38.4 -88.3,116.6 -60.5,184.7 136.3,333.3 133.3,634.2 -8,804.9 -80.9,97.8 -201.4,138.8 -330.7,112.7 -262.2,-53.1 -497.3,-346.2 -628.7,-784.2 -11.6,-38.4 -38,-70.6 -73.4,-89.3 -35.4,-18.8 -76.8,-22.7 -115.1,-10.7 -817.8,255.5 -1679.8,947.1 -1716.1,976.4 -53.1,42.9 -70.6,116.1 -42.6,178.3 28,62.2 94.5,97.6 161.7,86.4 416.5,-70.1 714.9,0 818.7,192.4 89.3,165.4 29.8,412.3 -144.7,600.5 -250.9,270.5 -632.6,328.7 -1021.1,155.4 -57.6,-25.6 -125.2,-12.5 -169,32.9 -43.8,45.4 -54.6,113.3 -26.9,170 250.9,513.5 607.4,849.7 1059.4,999.1 526.5,174.1 1150.8,87 1856.6,-258.6 429.7,411.5 839.6,594.5 1250.2,558.8 656.1,-56.8 1160.9,-664.8 1608.7,-1313.2 44.9,-65.1 31.6,-153.9 -30.4,-202.9 -226.1,-178.7 -327.9,-381 -286.7,-569.5 43.3,-198.3 244.5,-368.6 512.4,-433.8 60.7,-14.7 105.8,-65.5 113.5,-127.4 150.9,-1223.8 -323.3,-2067.4 -1409.3,-2507.4 -18.3,-7.4 -37.4,-11 -56.2,-11"
         style="fill:#000072;fill-opacity:1;fill-rule:nonzero;stroke:none"
         id="path60" /><path
         d="m 32201.5,24835.4 c 40.1,-18.4 70.1,-34.3 103.2,-52.6 32.3,-17.8 63.7,-36.2 94.8,-55.2 61.8,-38.1 122.3,-77.6 180.5,-120 117.3,-83.7 227.6,-175.8 331.2,-274.4 207.7,-196.7 386.4,-422.4 527.5,-668 142,-245.2 243.5,-511.1 306.4,-783.1 60.9,-272.8 84.1,-551.2 74.5,-826.7 -15.4,275.4 -63.7,547.6 -146.8,806.7 -85.1,258.5 -205.6,503.5 -360.7,722.6 -154.2,219.5 -340.2,414.5 -548.7,578.9 -104,82.4 -213.3,157.8 -327,224.3 -56.5,33.8 -114.7,64.5 -173,93.6 -29.3,14.4 -58.7,28.2 -88.1,41 -28.4,12.7 -61,25.9 -84.4,34 l -1.3,0.5 c -78.3,27.2 -119.8,112.8 -92.6,191.1 27.3,78.4 112.8,119.8 191.2,92.6 4.5,-1.5 9.1,-3.4 13.3,-5.3"
         style="fill:#000072;fill-opacity:1;fill-rule:nonzero;stroke:none"
         id="path62" /><path
         d="m 32588.4,27464.1 c 554.9,-225.2 1105.4,-694 1718.4,-1463.3 722.9,447.9 1025,1170 920.1,2200.1 -287.4,-66.4 -645.6,-5.1 -828.3,215.2 -101.4,122.4 -218.4,378.1 46.8,776.1 -663.5,489.5 -1233.8,458.6 -1786.5,-93 -32.1,-32 -77,-48 -122.2,-42.9 -883.1,96.5 -1346.5,-287.6 -1485.7,-679 -102.7,-288.8 -37.9,-581.3 163.5,-785.2 188.8,337.3 496.6,529.3 808.9,490.2 228.7,-28.9 488.4,-207.4 565,-618.2 m 1681.3,-1808.7 c -45.1,0 -89.3,20.3 -118.5,58 -640.9,824.5 -1196.7,1301.5 -1749.2,1500.9 -53.8,19.4 -91.9,67.8 -98.2,124.6 -28.9,261.4 -144.8,423.9 -317.9,445.7 -181,23.1 -438.5,-118.3 -576,-482.2 -16,-42.4 -50.4,-75.3 -93.5,-89.5 -43.1,-14.1 -90.3,-8 -128.3,16.6 -419.9,271.9 -588.6,773.6 -419.7,1248.3 165.6,465.8 717,968.9 1729.9,883.6 681.4,643.6 1437.9,635.7 2249.3,-24.1 64.1,-52.2 74,-146.5 21.9,-210.7 -105.2,-130 -263.2,-370.2 -139.9,-519 119.7,-144.3 448.8,-179.7 652.2,-70.1 43.1,23.2 94.9,23.9 138.7,1.8 43.8,-22.1 74,-64.2 80.9,-112.7 185.8,-1300.3 -204.3,-2226.4 -1159.4,-2752.6 -22.8,-12.5 -47.7,-18.6 -72.3,-18.6"
         style="fill:#000072;fill-opacity:1;fill-rule:nonzero;stroke:none"
         id="path64" /><path
         d="m 32579.3,29353.1 c 60.4,-15 107.2,-31.1 158.9,-49.3 50.3,-17.8 99.5,-37.6 148,-58.6 96.9,-42.3 190.9,-90 281.4,-143.6 180.6,-107.3 348.2,-236.7 490.1,-390 70.6,-76.8 135.8,-158.2 192.6,-244.9 55.8,-87.3 105.9,-177.7 145.7,-272.3 80.5,-188.8 124.5,-389.3 140.3,-589 -40.6,196.4 -108.5,385.9 -207.4,555.4 -48.9,85.1 -106.9,164 -168.8,238.6 -62.9,74 -132.5,141.5 -205.9,203.6 -147.5,124 -314.5,222.2 -489.4,298.5 -87.6,38 -177.6,70.3 -268.6,97.1 -45.6,13.2 -91.4,25.3 -137.2,35.4 -44.5,9.8 -94.5,19.5 -132.4,23.7 -82.5,9.2 -142.1,83.4 -132.9,166 9.1,82.5 83.4,142 165.9,132.9 6.4,-0.7 13.6,-2.1 19.7,-3.5"
         style="fill:#000072;fill-opacity:1;fill-rule:nonzero;stroke:none"
         id="path66" /><path
         d="m 25553.3,25380.5 c 16.8,-209.5 111.5,-445.2 218.6,-711.6 136.7,-340.1 289.6,-720.3 323.9,-1157.2 680.7,137.2 1247,356.7 1688.8,654.2 -294.7,187.9 -445.7,463.1 -411.2,768.4 37.3,330.5 292.1,615.4 592.5,662.6 120.8,19 395.5,18.4 622.5,-303.6 251.1,370.1 291.9,727.6 103.8,981.6 -189.4,255.6 -632.8,404 -1196.2,159.6 -58.4,-25.5 -126.6,-11.1 -169.8,35.7 -285.9,309 -568.5,460.2 -840.4,448.7 -207.9,-8.6 -412.9,-114.1 -611.5,-314.4 223.8,-102.1 377.2,-305.8 384.6,-539.7 8.3,-261.3 -176,-567.6 -705.6,-684.3 m 399.6,-2198.5 c -34.9,0 -69.1,12.2 -96.4,35.1 -33.9,28.5 -53.6,70.6 -53.6,114.9 0,455.5 -164.3,864.3 -309.3,1225.1 -135,335.8 -262.6,653 -240.3,959.2 5.1,70.1 58.2,127.2 127.7,137.5 362.7,53.5 584.2,207.3 578.1,401.5 -4.4,139.3 -135.1,297.8 -368.6,317.3 -54.9,4.6 -103,38.9 -125,89.4 -22.1,50.5 -14.7,109.1 19.3,152.5 302.3,386.3 634.9,589.6 988.6,604.2 337.8,14.1 674.8,-144 1000.8,-469.7 586.1,217.3 1163.1,103.9 1459,-295.6 306.4,-413.5 213.2,-984.9 -249.3,-1528.5 -33.4,-39.2 -84.5,-58.4 -135.3,-51.4 -50.8,7.2 -94.5,39.9 -115.7,86.8 -110.6,244.6 -259.8,365.5 -420.3,340.3 -168.9,-26.6 -318.7,-202.3 -341.1,-400 -27.2,-241.1 134,-444.5 453.9,-572.6 49.6,-19.9 84.9,-64.7 92.6,-117.5 7.8,-52.9 -13.2,-105.9 -55.1,-139.2 -537.4,-427.2 -1272.1,-725.6 -2183.8,-887 -8.7,-1.5 -17.5,-2.3 -26.2,-2.3"
         style="fill:#000072;fill-opacity:1;fill-rule:nonzero;stroke:none"
         id="path68" /><path
         d="m 27535.5,26459.6 c -138.5,-106.2 -261.5,-236.2 -366.6,-382.9 -105.2,-146.7 -192.6,-309.6 -264.9,-480.6 -144.5,-343 -230.7,-715.2 -289.3,-1090.7 9.1,380.1 44.8,763.6 147.5,1139.8 51.7,187.6 121.1,373.1 215.3,549.8 94,176.4 213.7,343.6 359.6,489.6 l 0.6,0.6 c 58.7,58.7 153.9,58.8 212.7,0.1 58.7,-58.7 58.7,-153.9 0,-212.7 -4.5,-4.5 -10,-9.2 -14.9,-13"
         style="fill:#000072;fill-opacity:1;fill-rule:nonzero;stroke:none"
         id="path70" /><path
         d="m 29536.4,18280.4 c -10.5,0 -21.2,1.3 -31.8,4.1 -66.8,17.5 -106.7,85.9 -89.2,152.6 268.1,1021.6 -196.2,2326 -408.3,2839.3 -124.7,301.9 -206.3,606.1 -242.6,904.1 -153.3,1262.1 453.3,1947 479.2,1975.6 46.4,51.1 125.4,54.9 176.6,8.5 51,-46.3 54.9,-125.2 8.8,-176.3 -8.6,-9.7 -554.8,-638.2 -416.4,-1777.6 33.5,-275.6 109.4,-557.8 225.4,-838.8 221.8,-536.7 706.5,-1903.3 419.1,-2998.2 -14.7,-56.2 -65.4,-93.3 -120.8,-93.3"
         style="fill:#000072;fill-opacity:1;fill-rule:nonzero;stroke:none"
         id="path72" /><path
         d="m 30186.5,18280.4 c -5.3,0 -10.7,0.3 -16,1 -68.5,8.7 -117,71.3 -108.2,139.8 96.7,757.6 107.5,1336.7 -557.4,2987.5 -780.8,1938.4 248.7,2832.5 292.9,2869.6 52.9,44.5 131.8,37.5 176.1,-15.3 44.3,-52.8 37.6,-131.4 -14.9,-175.8 -38.4,-32.8 -931.9,-823.3 -222.3,-2585.1 687.6,-1707.1 675.4,-2314.7 573.6,-3112.5 -8.1,-63.1 -61.9,-109.2 -123.8,-109.2"
         style="fill:#000072;fill-opacity:1;fill-rule:nonzero;stroke:none"
         id="path74" /><path
         d="m 29432.7,24125.3 c -64.4,0 -119,49.4 -124.4,114.6 -99,1189.9 5.6,2193.1 310.9,2981.9 326.8,844.5 893.1,1473.2 1683.1,1868.8 61.6,30.8 136.8,5.9 167.7,-55.8 30.9,-61.7 5.9,-136.8 -55.8,-167.8 -1446.9,-724.5 -2054.3,-2231.2 -1856.8,-4606.4 5.7,-68.7 -45.4,-129.1 -114.2,-134.9 -3.5,-0.3 -7.1,-0.4 -10.5,-0.4"
         style="fill:#000072;fill-opacity:1;fill-rule:nonzero;stroke:none"
         id="path76" /><path
         d="m 29969.2,24705.9 c -65.6,0 -120.6,51 -124.7,117.3 -100.4,1621.8 188.9,2723 938,3570.3 45.8,51.8 124.7,56.6 176.4,10.9 51.8,-45.7 56.6,-124.7 10.9,-176.4 -701.6,-793.7 -971.7,-1839 -875.8,-3389.4 4.3,-68.9 -48.1,-128.2 -117,-132.5 -2.6,-0.1 -5.2,-0.2 -7.8,-0.2"
         style="fill:#000072;fill-opacity:1;fill-rule:nonzero;stroke:none"
         id="path78" /><path
         d="m 29400.1,24705.9 c -62,0 -115.8,46.1 -123.8,109.3 -82.5,651.4 -409.6,1038.5 -412.9,1042.3 -44.9,52.3 -39.2,131.2 12.9,176.2 52.2,45 130.9,39.5 176.1,-12.5 15.4,-17.8 379.4,-444.1 471.9,-1174.6 8.7,-68.5 -39.8,-131 -108.3,-139.7 -5.3,-0.7 -10.6,-1 -15.9,-1"
         style="fill:#000072;fill-opacity:1;fill-rule:nonzero;stroke:none"
         id="path80" /><path
         d="m 28865.5,22502.3 c -3,0 -6,0.1 -9,0.3 -68.8,4.9 -120.7,64.7 -115.9,133.5 142.9,2025.1 23.6,2876.1 22.4,2884.4 -10,68.3 37.3,131.8 105.5,141.8 68.2,10.1 131.8,-37 141.8,-105.3 5.2,-34.9 125,-879.9 -20.3,-2938.5 -4.6,-65.8 -59.5,-116.2 -124.5,-116.2"
         style="fill:#000072;fill-opacity:1;fill-rule:nonzero;stroke:none"
         id="path82" /><path
         d="m 33877.4,20610 c -313.3,477.1 -661.2,840.8 -1058.5,1106.5 132.6,397.2 98.5,753.9 -98.3,991.8 -122.6,148.2 -298.1,229.3 -486.6,229.3 -44.4,0 -89.5,-4.5 -134.9,-13.7 -65.6,-13.3 -129.2,-35.2 -190.5,-65.2 154.4,123.5 352.8,196 546.9,196 121.2,0 240.7,-28.3 346.9,-90 202,-118 327.5,-330 494.5,-493.5 118.1,-115.9 285.5,-208.4 443.2,-208.4 20.5,0 40.9,1.5 61,4.8 8.4,-70.4 14.6,-141.2 18.5,-212.2 2.5,71.8 2.8,143.9 0.7,215.9 37,8.2 72.8,22.5 106.6,43.9 171.5,108 206,347 169.5,546 -36.5,199 -125,389 -135,591 -13,276 121,534.5 182,804 32.8,144.5 34.4,296.4 -6.9,437.9 184.3,-183.6 356.7,-405.8 516.1,-630.7 -325.3,-311 -321.7,-614.4 -286.4,-775.9 62.4,-285.6 300.5,-520.9 631.9,-631.6 94.4,-989.4 -273,-1660.4 -1120.7,-2045.9"
         style="fill:#359249;fill-opacity:1;fill-rule:nonzero;stroke:none"
         id="path84" /><path
         d="m 33819.4,20422.2 c -326,522.5 -713.5,945 -1183,1233 281,687.6 -13.4,1132.6 -401.5,1132.6 -224.4,0 -480,-148.6 -674,-485.1 50.5,181 138,349 268.5,484 24.8,25.6 51.3,49.6 79.2,72 61.3,30 124.9,51.9 190.5,65.2 45.4,9.2 90.5,13.7 134.9,13.7 188.5,0 364,-81.1 486.6,-229.3 196.8,-237.9 230.9,-594.6 98.3,-991.8 397.3,-265.7 745.2,-629.4 1058.5,-1106.5 847.7,385.5 1215.1,1056.5 1120.7,2045.9 -331.4,110.7 -569.5,346 -631.9,631.6 -35.3,161.5 -38.9,464.9 286.4,775.9 -159.4,224.9 -331.8,447.1 -516.1,630.7 -9.8,33.4 -21.9,66.2 -36.6,98.1 -46,101.5 -105.5,168 -107.5,228 312,-234 594,-595 860.5,-981.5 -635.5,-502.5 -333.5,-1116.5 283.5,-1266.5 151.5,-1231.5 -357.5,-1961.5 -1317,-2350"
         style="fill:#000072;fill-opacity:1;fill-rule:nonzero;stroke:none"
         id="path86" /><path
         d="m 33819.6,22055.4 c -3.9,71 -10.1,141.8 -18.5,212.2 6.4,1.1 12.9,2.3 19.2,3.7 2.1,-72 1.8,-144.1 -0.7,-215.9"
         style="fill:#000072;fill-opacity:1;fill-rule:nonzero;stroke:none"
         id="path88" /><path
         d="m 30792.7,22310.3 c -218.4,117.7 -421.6,246.8 -585.6,358.4 379.3,43.4 547.7,233.8 620.1,367.9 151.7,281 75.9,661.6 -188.7,946.9 -35,37.8 -74.1,74.2 -117,108.4 245.4,-35.2 483.2,-244.3 584.4,-446.7 140,-280 121,-623 -9,-907.5 -73.5,-160.1 -179,-302.7 -304.2,-427.4"
         style="fill:#359249;fill-opacity:1;fill-rule:nonzero;stroke:none"
         id="path90" /><path
         d="m 30675.4,22203.2 c -530,291.5 -956,635.5 -956,635.5 117.4,-19.7 223.9,-28.9 319.6,-28.9 964.9,0 856.2,927.7 249.4,1258.4 18,6 35.5,11 53,15.5 35.9,9.1 72.4,13.4 109,13.4 23.7,0 47.5,-1.8 71.1,-5.2 42.9,-34.2 82,-70.6 117,-108.4 264.6,-285.3 340.4,-665.9 188.7,-946.9 -72.4,-134.1 -240.8,-324.5 -620.1,-367.9 164,-111.6 367.2,-240.7 585.6,-358.4 -37.5,-37.3 -76.7,-73 -117.3,-107.1"
         style="fill:#000072;fill-opacity:1;fill-rule:nonzero;stroke:none"
         id="path92" /><path
         d="m 34306.8,26000.8 c -613,769.3 -1163.5,1238.1 -1718.4,1463.3 -63.4,339.9 -252.1,520.8 -444.9,589.4 80.4,21.2 163.7,31.9 247,31.9 145.6,0 291,-32.6 420.9,-98.7 210.5,-107 372,-288.5 534.5,-459.5 163,-171 341,-341.5 565.5,-414.5 63.4,-20.6 131.6,-31.2 199.5,-31.2 172.3,0 343.2,68 432.5,212.2 115.5,186 62.5,431 -31.5,629.5 -94,198 -226,383 -267,598 -30.8,159.8 -5.5,289.5 61.1,378.2 -63.4,-234.2 18.8,-394.1 92.6,-483.3 136.6,-164.8 371.4,-240.6 601.3,-240.6 77.5,0 154.5,8.6 227,25.4 104.9,-1030.1 -197.2,-1752.2 -920.1,-2200.1"
         style="fill:#359249;fill-opacity:1;fill-rule:nonzero;stroke:none"
         id="path94" /><path
         d="m 34269.4,25805.2 c -565,727 -1157,1312 -1816.5,1550 -43.6,393.9 -262.2,581.9 -506.6,581.9 -25,0 -50.1,-2 -75.4,-5.9 4,3 8.5,6 12.5,8.5 80,51.6 168.2,89.6 260.1,113.8 192.8,-68.6 381.5,-249.5 444.9,-589.4 554.9,-225.2 1105.4,-694 1718.4,-1463.3 722.9,447.9 1025,1170 920.1,2200.1 -72.5,-16.8 -149.5,-25.4 -227,-25.4 -229.9,0 -464.7,75.8 -601.3,240.6 -73.8,89.2 -156,249.1 -92.6,483.3 50,66.7 123.3,110.2 213.4,125.8 -256.7,-469 112.6,-701.3 481,-701.3 126,0 251.8,27.2 352.5,81.3 190.5,-1334 -244.5,-2138 -1083.5,-2600"
         style="fill:#000072;fill-opacity:1;fill-rule:nonzero;stroke:none"
         id="path96" /><path
         d="m 26444.7,23591.8 c -51,218.5 -120,443.8 -207.1,675.6 317,32.8 619.5,222.1 770.8,504.3 112.5,210 145,456 264.5,662 152,263.5 447,437.5 751,444.5 5.9,0.2 11.9,0.2 17.8,0.2 257.5,0 506,-122.3 702.2,-293.7 -36.7,-95.1 -88.6,-192.8 -155.5,-291.4 -183,259.5 -396.9,310.2 -536.3,310.2 -33.5,0 -62.7,-2.9 -86.2,-6.6 -300.4,-47.2 -555.2,-332.1 -592.5,-662.6 -34.5,-305.3 116.5,-580.5 411.2,-768.4 -364,-245.1 -812.5,-437.3 -1339.9,-574.1"
         style="fill:#359249;fill-opacity:1;fill-rule:nonzero;stroke:none"
         id="path98" /><path
         d="m 26476.5,23444.9 c -9.7,48.6 -20.3,97.6 -31.8,146.9 527.4,136.8 975.9,329 1339.9,574.1 -294.7,187.9 -445.7,463.1 -411.2,768.4 37.3,330.5 292.1,615.4 592.5,662.6 23.5,3.7 52.7,6.6 86.2,6.6 139.4,0 353.3,-50.7 536.3,-310.2 66.9,98.6 118.8,196.3 155.5,291.4 7,-6.1 14,-12.3 20.8,-18.6 -3.3,-14.5 -4,-29.9 -1.7,-45.6 0.3,-2.2 9.4,-66.7 19.5,-199.9 -56.2,-97.2 -126.9,-196.8 -213.1,-298.4 -140.6,311.2 -333.1,431.8 -514.9,431.8 -495.2,0 -911.6,-894.4 14.9,-1265.3 -426,-338.7 -962.6,-581.7 -1592.9,-743.8"
         style="fill:#000072;fill-opacity:1;fill-rule:nonzero;stroke:none"
         id="path100" /><path
         d="m 28782.5,25320.6 c -10.1,133.2 -19.2,197.7 -19.5,199.9 -2.3,15.7 -1.6,31.1 1.7,45.6 33.3,-30.2 64.9,-61.8 94.7,-94.4 -21.7,-49.6 -47.3,-100 -76.9,-151.1"
         style="fill:#000072;fill-opacity:1;fill-rule:nonzero;stroke:none"
         id="path102" /><path
         d="m 6690.62,10470.5 c -125.71,-114.1 -292.08,-183.3 -474.3,-183.3 -389.28,0 -704.6,315.3 -704.6,704.1 0,389.2 315.32,704.6 704.6,704.6 182.22,0 348.59,-69.2 474.3,-183.8 v 916.9 c -149.48,50.2 -308.45,76.6 -474.3,76.6 -836.11,0 -1514.3,-677.7 -1514.3,-1514.3 0,-836.1 678.19,-1513.8 1514.3,-1513.8 174.3,0 341.72,29.6 497.54,84 l -23.24,909"
         style="fill:#06a0ff;fill-opacity:1;fill-rule:nonzero;stroke:none"
         id="path104" /><path
         d="m 6216.32,10287.2 v 0 c 106.95,0 208.46,23.8 299.48,66.6 v 0 c -91.02,-42.8 -192.52,-66.6 -299.48,-66.6 m -0.13,0 c -0.74,0 -1.51,0 -2.24,0 0.74,0 1.49,0 2.24,0 m -3.18,0 c -0.48,0 -0.94,0 -1.42,0 0.46,0 0.96,0 1.42,0 m -2.56,0 c -0.42,0 -0.79,0 -1.22,0 0.42,0 0.81,0 1.22,0 m -2.42,0 c -0.4,0.1 -0.75,0.1 -1.15,0.1 0.38,0 0.77,0 1.15,-0.1 m -2.41,0.1 c -0.38,0 -0.71,0 -1.09,0 0.36,0 0.73,0 1.09,0 m -2.37,0 c -0.35,0 -0.72,0 -1.08,0 0.36,0 0.72,0 1.08,0 m -2.36,0.1 c -0.36,0 -0.73,0 -1.08,0 0.36,0 0.72,0 1.08,0 m -2.35,0 c -0.36,0 -0.7,0 -1.05,0 0.34,0 0.7,0 1.05,0 m -2.41,0.1 c -0.31,0 -0.62,0 -0.92,0 0.3,0 0.61,0 0.92,0 m -2.34,0.1 c -0.31,0 -0.58,0 -0.88,0 0.29,0 0.58,0 0.88,0 m -2.37,0 c -0.21,0 -0.45,0 -0.66,0.1 0.22,-0.1 0.44,-0.1 0.66,-0.1 m -8.5,0.4 c -0.23,0 -0.46,0 -0.7,0 0.24,0 0.46,0 0.7,0 m -2.19,0.1 c -0.28,0 -0.57,0 -0.85,0 0.28,0 0.57,0 0.85,0 m -2.37,0.1 c -0.26,0 -0.51,0 -0.77,0 0.25,0 0.52,0 0.77,0 m -2.29,0.1 c -0.26,0 -0.58,0.1 -0.83,0.1 0.28,0 0.55,-0.1 0.83,-0.1 m -2.28,0.2 c -0.3,0 -0.59,0 -0.89,0 0.3,0 0.59,0 0.89,0 m -2.3,0.1 c -0.3,0 -0.64,0 -0.95,0.1 0.32,-0.1 0.64,-0.1 0.95,-0.1 m -2.31,0.2 c -0.31,0 -0.63,0 -0.94,0 0.31,0 0.63,0 0.94,0 m -2.34,0.1 c -0.3,0 -0.63,0.1 -0.93,0.1 0.31,0 0.62,-0.1 0.93,-0.1 m -2.29,0.2 c -0.33,0 -0.69,0 -1.01,0 0.32,0 0.68,0 1.01,0 m -2.32,0.1 c -0.35,0.1 -0.7,0.1 -1.05,0.1 0.35,0 0.7,0 1.05,-0.1 m -2.32,0.2 c -0.35,0.1 -0.68,0.1 -1.03,0.1 0.34,0 0.69,0 1.03,-0.1 m -3.24,0.3 c -0.44,0 -0.89,0.1 -1.33,0.1 0.44,0 0.89,-0.1 1.33,-0.1 m -2.29,0.2 c -0.46,0 -0.92,0.1 -1.38,0.1 0.45,0 0.93,-0.1 1.38,-0.1 m -2.33,0.2 c -0.47,0 -0.93,0.1 -1.4,0.1 0.47,0 0.93,-0.1 1.4,-0.1 m -2.33,0.2 c -0.49,0.1 -0.91,0.1 -1.4,0.1 0.46,0 0.93,-0.1 1.4,-0.1 m -2.34,0.2 c -0.48,0.1 -0.95,0.1 -1.43,0.2 0.47,-0.1 0.96,-0.1 1.43,-0.2 m -2.26,0.3 c -0.51,0 -1.04,0.1 -1.55,0.1 0.52,0 1.04,-0.1 1.55,-0.1 m -2.33,0.2 c -0.54,0 -1.06,0.1 -1.59,0.2 0.53,-0.1 1.06,-0.2 1.59,-0.2 m -2.31,0.2 c -0.58,0.1 -1.09,0.2 -1.67,0.2 0.56,0 1.11,-0.1 1.67,-0.2 m -2.32,0.3 c -0.63,0.1 -1.24,0.1 -1.86,0.2 0.62,-0.1 1.23,-0.1 1.86,-0.2 m -2.27,0.2 c -0.74,0.1 -1.48,0.2 -2.22,0.3 0.74,-0.1 1.48,-0.2 2.22,-0.3 m -2.3,0.3 c -176.77,20.7 -333.5,106.7 -445.4,233.2 -0.02,0.1 -0.04,0.1 -0.06,0.2 111.76,-126.4 268.38,-212.7 445.46,-233.4"
         style="fill:#e8f7ff;fill-opacity:1;fill-rule:nonzero;stroke:none"
         id="path106" /><path
         d="m 6372.13,9990.9 c -331.1,0 -608.34,227.5 -683.94,534.3 111.9,-126.5 268.63,-212.5 445.4,-233.2 0.02,0 0.06,0 0.08,0 0.74,-0.1 1.48,-0.2 2.22,-0.3 0.13,0 0.27,0 0.41,0 0.62,-0.1 1.23,-0.1 1.86,-0.2 0.21,0 0.44,-0.1 0.65,-0.1 0.58,0 1.09,-0.1 1.67,-0.2 0.24,0 0.48,0 0.72,0 0.53,-0.1 1.05,-0.2 1.59,-0.2 0.26,0 0.52,-0.1 0.78,-0.1 0.51,0 1.04,-0.1 1.55,-0.1 0.27,-0.1 0.55,-0.1 0.83,-0.1 0.48,-0.1 0.95,-0.1 1.43,-0.2 0.32,0 0.63,0 0.94,-0.1 0.49,0 0.91,0 1.4,-0.1 0.31,0 0.62,-0.1 0.93,-0.1 0.47,0 0.93,-0.1 1.4,-0.1 0.32,0 0.62,-0.1 0.95,-0.1 0.46,0 0.92,-0.1 1.38,-0.1 0.33,0 0.64,-0.1 0.96,-0.1 0.44,0 0.89,-0.1 1.33,-0.1 0.74,-0.1 1.47,-0.1 2.21,-0.2 0.35,0 0.68,0 1.03,-0.1 0.42,0 0.86,0 1.27,-0.1 0.35,0 0.7,0 1.05,-0.1 0.45,0 0.86,0 1.31,-0.1 0.32,0 0.68,0 1.01,0 0.45,-0.1 0.9,-0.1 1.36,-0.1 0.3,0 0.63,-0.1 0.93,-0.1 0.47,0 0.94,-0.1 1.4,-0.1 0.31,0 0.63,0 0.94,0 0.45,-0.1 0.91,-0.1 1.36,-0.1 0.31,-0.1 0.65,-0.1 0.95,-0.1 0.47,0 0.94,-0.1 1.41,-0.1 0.3,0 0.59,0 0.89,0 0.48,-0.1 0.96,-0.1 1.45,-0.1 0.25,0 0.57,-0.1 0.83,-0.1 0.51,0 1.01,0 1.52,-0.1 0.26,0 0.51,0 0.77,0 0.51,0 1.01,0 1.52,-0.1 0.28,0 0.57,0 0.85,0 0.49,0 1,-0.1 1.49,-0.1 0.24,0 0.47,0 0.7,0 2.61,-0.1 5.23,-0.3 7.84,-0.3 0.21,-0.1 0.45,-0.1 0.66,-0.1 0.5,0 0.99,0 1.49,0 0.3,0 0.57,0 0.88,0 0.47,-0.1 0.95,-0.1 1.42,-0.1 0.3,0 0.61,0 0.92,0 0.46,0 0.9,0 1.36,-0.1 0.35,0 0.69,0 1.05,0 0.42,0 0.85,0 1.27,0 0.35,0 0.72,0 1.08,0 0.43,0 0.85,-0.1 1.28,-0.1 0.36,0 0.73,0 1.08,0 0.43,0 0.86,0 1.28,0 0.38,0 0.71,0 1.09,0 0.42,0 0.84,0 1.26,0 0.4,0 0.75,0 1.15,-0.1 0.4,0 0.81,0 1.2,0 0.43,0 0.8,0 1.22,0 0.39,0 0.76,0 1.14,0 0.48,0 0.94,0 1.42,0 0.32,0 0.62,0 0.94,0 0.73,0 1.5,0 2.24,0 0.04,0 0.08,0 0.12,0 v 0 c 0.01,0 0.01,0 0.01,0 106.96,0 208.46,23.8 299.48,66.6 v -348.3 c -46.45,-9.6 -94.51,-14.6 -143.67,-14.6"
         style="fill:#8fd4ff;fill-opacity:1;fill-rule:nonzero;stroke:none"
         id="path108" /><path
         d="m 4960.83,10144.6 c -7.66,11.3 -15.18,22.8 -22.54,34.4 7.33,-11.5 14.84,-22.9 22.47,-34.2 0.02,-0.1 0.05,-0.1 0.07,-0.2 m -258.77,835.4 c 0,0.2 0,0.4 -0.01,0.5 0.01,-0.2 0.01,-0.3 0.01,-0.5 m -0.04,7.2 c 0,0.3 0,0.5 0,0.8 0,-0.3 0,-0.5 0,-0.8 m 23.66,272.2 c 126.58,708.6 745.98,1246.2 1490.63,1246.2 v 0 c -744.65,0 -1364.05,-537.6 -1490.63,-1246.2 m 1790.12,1216.4 c -28.92,5.9 -58.15,10.9 -87.64,15.1 29.5,-4.2 58.71,-9.2 87.64,-15.1 v 0"
         style="fill:#e8f7ff;fill-opacity:1;fill-rule:nonzero;stroke:none"
         id="path110" /><path
         d="m 4960.76,10144.8 c -7.63,11.3 -15.14,22.7 -22.47,34.2 -147.55,231.9 -234.07,506.7 -236.23,801 0,0.2 0,0.3 -0.01,0.5 -0.01,2.3 -0.02,4.5 -0.03,6.7 0,0.3 0,0.5 0,0.8 0,1.1 0,2.2 0,3.3 v 0 c 0,91.5 8.11,181.1 23.66,268.1 126.58,708.6 745.98,1246.2 1490.64,1246.2 71.97,0 142.66,-5 211.84,-14.7 29.49,-4.2 58.72,-9.2 87.64,-15.1 v -273.3 c -47.28,4.5 -95.22,6.8 -143.67,6.8 -836.64,0 -1514.82,-677.7 -1514.82,-1514.3 0,-194.4 36.41,-379.7 103.45,-550.2"
         style="fill:#8fd4ff;fill-opacity:1;fill-rule:nonzero;stroke:none"
         id="path112" /><path
         d="m 8469.01,8068.8 h 669.02 c 982.07,0 1778.17,796.2 1778.17,1778.2 v 3318.8 c 0,160.4 -130,290.5 -290.5,290.5 H 6981.3 c -160.44,0 -290.5,-130.1 -290.5,-290.5 V 9847 c 0,-982 796.12,-1778.2 1778.21,-1778.2"
         style="fill:#06a0ff;fill-opacity:1;fill-rule:nonzero;stroke:none"
         id="path114" /><path
         d="m 8899.01,8243.9 h -430 c -155.13,0 -305.22,22.1 -447.2,63.4 -35.47,20.6 -70.29,42.4 -104.15,65.2 h 392.89 c 135.57,0 267.61,15.2 394.48,43.9 60.26,-62.4 125.15,-120.1 193.98,-172.5 m 1842.19,1848.6 H 10088 c 0.6,19.4 0.9,38.9 0.9,58.4 v 3130.4 h 371 v -2281.1 c 0,-299.8 105.5,-575.5 281.3,-791.9 v -115.8"
         style="fill:#0470d4;fill-opacity:1;fill-rule:nonzero;stroke:none"
         id="path116" /><path
         d="m 7917.66,8372.5 h -77.98 c -572.09,245.1 -973.88,813.8 -973.88,1474.6 v 3318.7 c 0,63.7 51.8,115.5 115.51,115.5 h 176.27 c -15.33,-35.4 -23.82,-74.5 -23.82,-115.5 V 9847.2 c 0,-614 310.85,-1155.1 783.9,-1474.7"
         style="fill:#8fd4ff;fill-opacity:1;fill-rule:nonzero;stroke:none"
         id="path118" /><path
         d="m 8021.81,8307.3 c -62.37,18.1 -123.13,40 -182.13,65.2 h 77.98 c 33.86,-22.8 68.68,-44.6 104.15,-65.2"
         style="fill:#8ebfec;fill-opacity:1;fill-rule:nonzero;stroke:none"
         id="path120" /><path
         d="m 6981.31,13281.3 c -63.71,0 -115.51,-51.8 -115.51,-115.5 V 9847.1 c 0,-884.1 719.19,-1603.2 1603.21,-1603.2 h 669.03 c 884.06,0 1603.16,719.1 1603.16,1603.2 v 3318.7 c 0,63.7 -51.8,115.5 -115.5,115.5 H 6981.31 M 9138.04,7893.9 h -669.03 c -1077,0 -1953.21,876.2 -1953.21,1953.2 v 3318.7 c 0,256.7 208.82,465.5 465.51,465.5 h 3644.39 c 256.7,0 465.5,-208.8 465.5,-465.5 V 9847.1 c 0,-1077 -876.2,-1953.2 -1953.16,-1953.2"
         style="fill:#000072;fill-opacity:1;fill-rule:nonzero;stroke:none"
         id="path122" /><path
         d="m 6216.32,9302.5 c -931.5,0 -1689.31,757.6 -1689.31,1688.8 0,931.5 757.81,1689.3 1689.31,1689.3 182.29,0 360.59,-28.9 529.98,-85.7 l 119.31,-40.1 v -1439.2 l -292.92,267.1 c -97.66,89.1 -224.22,138.2 -356.37,138.2 -292.02,0 -529.59,-237.6 -529.59,-529.6 0,-291.8 237.57,-529.1 529.59,-529.1 132.08,0 258.74,49 356.66,137.9 l 235.25,-259.2 c -162.47,-147.5 -372.67,-228.7 -591.91,-228.7 -485.01,0 -879.59,394.3 -879.59,879.1 0,485 394.58,879.6 879.59,879.6 103.14,0 204.25,-18 299.29,-52.4 v 478.3 c -97.09,22.4 -197.32,33.8 -299.29,33.8 -738.51,0 -1339.31,-600.8 -1339.31,-1339.3 0,-738.2 600.8,-1338.8 1339.31,-1338.8 150.83,0 298.8,25 439.84,74.2 l 115.38,-330.4 c -178.22,-62.3 -365.04,-93.8 -555.22,-93.8"
         style="fill:#000072;fill-opacity:1;fill-rule:nonzero;stroke:none"
         id="path124" /><path
         d="m 25129.2,20393.4 c -170.2,-121.8 -357.2,-236.7 -561.5,-345 -1710.3,-907.1 -3768.6,-907.1 -5479,0 -43.8,23.2 -86.6,46.7 -128.9,70.8 -1914.3,1080.4 -2219.8,2792.3 -910,5137.6 -75.6,525.8 -121.3,1046.1 -119.2,1557.9 0.8,281.9 16.7,561.4 49.4,837.8 31,259.2 263,445.5 523.2,423.3 859.8,-73.7 1622.6,-284.8 2268.1,-661.1 l 680.4,42.6 c 250.8,15.6 502.3,15.6 753.1,0 l 680.3,-42.6 c 645.5,376.3 1408.4,587.4 2268.2,661.1 260.2,22.2 492.2,-164.1 523.1,-423.3 32.8,-276.4 48.6,-555.9 49.4,-837.8 2.1,-511.8 -43.6,-1032.1 -119.1,-1557.9 1203.8,-2155.8 1043.1,-3776.3 -477.5,-4863.4"
         style="fill:#939393;fill-opacity:1;fill-rule:nonzero;stroke:none"
         id="path126" /><path
         d="m 25129.2,20393.4 c -170.2,-121.8 -357.2,-236.7 -561.5,-345 -1710.3,-907.1 -3768.6,-907.1 -5479,0 -43.8,23.2 -86.6,46.7 -128.9,70.8 -1618.9,1296.3 -614.9,2927.1 838.4,2728.9 685.9,-6.1 1289.4,74.8 1206.4,874.6 -69.5,634.7 45.5,1101.6 399.3,1350.2 292.5,205.8 688.3,205.8 980.8,0 353.8,-248.6 468.7,-715.5 399.2,-1350.2 -82.9,-799.8 520.6,-880.7 1206.5,-874.6 1352.3,184.4 2315.7,-1214.6 1138.8,-2454.7"
         style="fill:#ffffff;fill-opacity:1;fill-rule:nonzero;stroke:none"
         id="path128" /><path
         d="m 20470.4,27356.4 c -116.6,0 -232.9,20.9 -343,63.1 -491.4,188.4 -1035,303.3 -1624.2,354 -14.1,1.2 -28.1,1.8 -42,1.8 -126.2,0 -243.3,-48.6 -330.7,-129.7 24.8,163.6 165.2,282 330.3,282 9.8,0 19.7,-0.4 29.6,-1.2 796.7,-68.3 1492.1,-258.5 2070,-565.9 -30,-2.7 -60,-4.1 -90,-4.1"
         style="fill:#d4d4d4;fill-opacity:1;fill-rule:nonzero;stroke:none"
         id="path130" /><path
         d="m 17777.5,22034.1 c -96.3,47.2 -202.1,84 -314.6,108.2 -21.3,97.7 -36.8,198 -46.6,300.6 104.1,-142.6 224.5,-278.9 361.2,-408.8 m 7753.8,76.6 c -29.2,59.1 -63.1,115.8 -101.3,169.6 389,458.6 598.7,987.7 628.8,1587 188.6,-601.4 239.8,-1147.8 152.7,-1634.5 -39.2,3.1 -78.1,4.7 -116.5,4.7 -207.4,0 -401.6,-45 -563.7,-126.8"
         style="fill:#676789;fill-opacity:1;fill-rule:nonzero;stroke:none"
         id="path132" /><path
         d="m 25168.8,21184.3 h -1288.7 c 116.9,52.4 232.6,108.9 346.6,169.3 203.9,108.3 390.8,222.9 561.4,344.9 251.1,179.4 465,373.3 641.9,581.8 38.2,-53.8 72.1,-110.5 101.3,-169.6 -217.8,-109.9 -377.6,-286.4 -433.7,-509.6 -24.3,-96.8 -24.2,-183.4 -3.5,-261.6 v 0 0 c 14.7,-56 40.1,-107.6 74.7,-155.2 m -6075,0 h -776.9 c 3.8,27.5 5.8,56.5 5.8,86.9 v 0 0 c 0,49.2 -5.3,97.8 -15.3,144.8 -21.4,102.4 -65.2,199 -127.4,286.9 135.3,-97.1 281.5,-189.9 438.5,-278.5 42.2,-24.3 85,-47.5 128.8,-70.8 114,-60.4 229.6,-116.9 346.5,-169.3"
         style="fill:#b2b2d4;fill-opacity:1;fill-rule:nonzero;stroke:none"
         id="path134" /><path
         d="m 23128.6,27356.4 c -12.9,0 -25.9,0.3 -38.9,0.8 579.1,309.3 1276.8,500.6 2076.3,569.2 10,0.8 19.9,1.3 29.8,1.3 168.8,0 311.5,-123.8 331.7,-292.9 2.5,-21.6 5,-43.3 7.4,-65.1 -88.7,125.8 -235.4,205.6 -397.1,205.6 -13.9,0 -27.9,-0.6 -42,-1.8 -589.2,-50.7 -1132.8,-165.6 -1624.2,-354 -110.2,-42.2 -226.4,-63.1 -343,-63.1"
         style="fill:#d4d4d4;fill-opacity:1;fill-rule:nonzero;stroke:none"
         id="path136" /><path
         d="m 18460.8,27927.6 c -168.7,0 -311.6,-123.6 -331.8,-292.8 -82.1,-689.1 -59.5,-1459.9 69.3,-2356.7 4.7,-32.5 -1.5,-65.7 -17.5,-94.5 -704.2,-1260.8 -931.3,-2340.6 -675,-3209.3 212.8,-721.1 769,-1324.5 1653.3,-1793.5 1671.3,-886.4 3667,-886.4 5338.3,0 884.2,469 1440.4,1072.4 1653.2,1793.5 256.3,868.7 29.3,1948.5 -674.9,3209.3 -16,28.8 -22.2,62 -17.5,94.5 128.7,896.8 151.4,1667.7 69.3,2356.7 -21.4,179 -179.9,307.1 -361.5,291.6 -859.9,-73.8 -1601.9,-289.5 -2205.3,-641.3 -25.7,-14.9 -55.4,-21.8 -84.9,-20.1 l -680.5,42.5 c -243.6,15.3 -490.5,15.3 -734.1,0 l -680.5,-42.5 c -29.9,-2 -59.3,5.1 -84.9,20.1 -603.5,351.8 -1345.4,567.5 -2205.4,641.3 -9.9,0.8 -19.8,1.2 -29.6,1.2 M 21828.2,19216 c -965,0 -1930,233.3 -2809.7,699.8 -958.2,508.2 -1563.9,1172.2 -1800.4,1973.6 -276.9,938.4 -49.4,2080.9 676.1,3396.2 -126.2,901.8 -146.8,1682.3 -63.1,2384.7 40.6,340.5 341.1,584 684.8,555 886.1,-76 1656.5,-297.3 2291.1,-658.1 l 635.5,39.8 c 255.9,16 515.6,16 771.5,0 l 635.4,-39.8 c 634.7,360.8 1405.1,582.1 2291,658.1 343.7,29.3 644.3,-214.5 685,-555 83.7,-702.4 63,-1482.9 -63.2,-2384.7 725.6,-1315.3 953.1,-2457.8 676.2,-3396.2 C 26201.9,21088 25596.2,20424 24638,19915.8 23758.3,19449.3 22793.2,19216 21828.2,19216"
         style="fill:#000072;fill-opacity:1;fill-rule:nonzero;stroke:none"
         id="path138" /><path
         d="m 18657.5,26020.9 c 324.5,367 655.5,685.9 1004.1,878.6 -299.7,148.8 -619.1,266.6 -963,346.1 -108.6,25.1 -210.9,-61.4 -204,-172.7 21.7,-353.3 79,-703.7 162.9,-1052"
         style="fill:#ff85b7;fill-opacity:1;fill-rule:nonzero;stroke:none"
         id="path140" /><path
         d="m 18517.7,26803.3 c -9.7,89.6 -17.7,179.4 -23.2,269.5 -6.1,98.4 72.8,177.2 166.2,177.2 12.4,0 25.2,-1.4 38,-4.4 145.7,-33.7 287,-74.3 424.3,-121.2 -137.3,46.9 -278.7,87.5 -424.4,121.2 -12.8,2.9 -25.5,4.3 -38,4.3 -93.2,0 -172.1,-78.8 -166,-177 5.5,-89.9 13.3,-179.7 23.3,-269.3 0,-0.1 -0.1,-0.2 -0.2,-0.3"
         style="fill:#676789;fill-opacity:1;fill-rule:nonzero;stroke:none"
         id="path142" /><path
         d="m 19334.7,26680.4 c -202.6,81.2 -414.3,148.5 -636,199.5 -12.8,3 -25.6,4.4 -38,4.4 -59.6,0 -113.2,-32.1 -142.8,-80.7 -10,89.6 -17.8,179.4 -23.3,269.3 -6.1,98.2 72.8,177 166,177 12.5,0 25.2,-1.4 38,-4.3 145.7,-33.7 287.1,-74.3 424.4,-121.2 186.7,-63.7 365.9,-139.2 538.6,-224.9 v 0 c -110.7,-61.1 -219.6,-135 -326.9,-219.1"
         style="fill:#b25da2;fill-opacity:1;fill-rule:nonzero;stroke:none"
         id="path144" /><path
         d="m 25086.7,26020.9 c -324.5,367 -655.6,685.9 -1004.1,878.6 299.7,148.8 619.1,266.6 963,346.1 108.6,25.1 210.9,-61.4 204,-172.7 -21.7,-353.3 -79,-703.7 -162.9,-1052"
         style="fill:#ff85b7;fill-opacity:1;fill-rule:nonzero;stroke:none"
         id="path146" /><path
         d="m 24409.4,26680.4 c -5.3,4.2 -10.5,8.3 -15.8,12.4 5.3,-4.1 10.6,-8.2 15.8,-12.4 v 0 m 817,122.9 c 0,0.1 -0.1,0.2 -0.1,0.3 10,89.6 17.8,179.4 23.3,269.3 6.1,98.2 -72.8,177 -166.1,177 -12.4,0 -25.1,-1.4 -37.9,-4.3 -175.2,-40.5 -344,-90.9 -507.1,-150.3 163.1,59.4 331.8,109.8 506.9,150.3 12.9,3 25.6,4.4 38.1,4.4 93.4,0 172.2,-78.8 166.2,-177.2 -5.6,-90.1 -13.5,-179.9 -23.3,-269.5 m -1131.6,89.4 c -4.1,2.3 -8.2,4.5 -12.2,6.8 44.2,22 88.9,43.3 134,63.9 -45.1,-20.6 -89.8,-41.9 -134,-63.9 4.1,-2.3 8.1,-4.5 12.2,-6.8"
         style="fill:#676789;fill-opacity:1;fill-rule:nonzero;stroke:none"
         id="path148" /><path
         d="m 24409.4,26680.4 c -5.2,4.2 -10.5,8.3 -15.8,12.4 -98.2,75.9 -197.8,143.2 -298.8,199.9 -4.1,2.3 -8.1,4.5 -12.2,6.8 44.2,22 88.9,43.3 134,63.9 104.9,47.8 212.1,91.9 321.9,131.9 163.1,59.4 331.9,109.8 507.1,150.3 12.8,2.9 25.5,4.3 37.9,4.3 93.3,0 172.2,-78.8 166.1,-177 -5.5,-89.9 -13.3,-179.7 -23.3,-269.3 -29.6,48.6 -83.2,80.7 -142.8,80.7 -12.5,0 -25.2,-1.4 -38.1,-4.4 -221.7,-51 -433.3,-118.3 -636,-199.5"
         style="fill:#b25da2;fill-opacity:1;fill-rule:nonzero;stroke:none"
         id="path150" /><path
         d="m 18660.5,27144.3 c -18.5,0 -32,-8.7 -39,-14.6 -8.7,-7.4 -23.1,-23.8 -21.5,-50.3 16.8,-272 54.8,-547.4 115.8,-836.7 263.2,283.4 498.8,493.4 723.5,644.4 -247.9,109.6 -504.3,195.4 -764.5,255.5 -5,1.2 -9.8,1.7 -14.3,1.7 z m -3,-1229.1 c -8.5,0 -17,1.1 -25.5,3.2 -38.2,9.5 -68,39.5 -77.2,77.8 -90.3,374.7 -144.5,724.7 -165.8,1070.2 -5.3,86.7 29.7,168.5 95.9,224.6 66.3,56.2 152.8,77 237.5,57.5 338.1,-78.1 669.9,-197.3 986.2,-354.4 35.2,-17.4 57.8,-53 58.6,-92.3 0.9,-39.3 -20.1,-75.8 -54.5,-94.8 -292.5,-161.7 -602.6,-433.7 -976,-856.1 -20.3,-23 -49.3,-35.7 -79.2,-35.7"
         style="fill:#000072;fill-opacity:1;fill-rule:nonzero;stroke:none"
         id="path152" /><path
         d="m 24304.9,26887.1 c 224.7,-151 460.3,-361 723.5,-644.4 61,289.3 99,564.7 115.8,836.7 1.6,26.5 -12.8,42.9 -21.5,50.3 -8.8,7.4 -27.5,18.9 -53.3,12.9 -260.3,-60.1 -516.6,-145.9 -764.5,-255.5 z m 781.8,-971.9 c -29.9,0 -58.9,12.7 -79.2,35.7 -373.4,422.4 -683.6,694.4 -976,856.1 -34.4,19 -55.4,55.5 -54.6,94.8 0.9,39.3 23.5,74.9 58.7,92.3 316.2,157.1 648.1,276.3 986.2,354.4 84.7,19.6 171.2,-1.4 237.4,-57.5 66.3,-56.1 101.3,-137.9 95.9,-224.5 -21.2,-345.6 -75.4,-695.6 -165.7,-1070.3 -9.2,-38.3 -39,-68.3 -77.2,-77.8 -8.5,-2.1 -17.1,-3.2 -25.5,-3.2"
         style="fill:#000072;fill-opacity:1;fill-rule:nonzero;stroke:none"
         id="path154" /><path
         d="m 20321,25924.7 c -96.5,-22.9 -174.8,-38.2 -248.6,-61.8 -73.2,-22.8 -142.3,-48.2 -211.9,-82.7 -69.3,-34.8 -137.7,-78.1 -206.5,-127.8 -68.9,-49.8 -137.5,-105.6 -212.9,-164.9 l -1.7,-1.2 c -25.7,-20.3 -63.1,-15.8 -83.3,10 -11.4,14.5 -14.9,32.9 -11.3,49.6 22.7,101.4 69.5,195.9 132.7,280.3 63.2,84.2 144.1,158.8 240,214.6 95.2,56.1 207.2,92.7 320.9,93.1 113,0.2 225.4,-30.8 311.3,-100.4 26.4,-21.4 30.5,-60.2 9.1,-86.6 -8.9,-11 -20.8,-18.2 -33.6,-21.2 l -4.2,-1"
         style="fill:#000072;fill-opacity:1;fill-rule:nonzero;stroke:none"
         id="path156" /><path
         d="m 23447.7,26033.5 c 85.9,69.6 198.3,100.6 311.3,100.4 113.7,-0.4 225.7,-37 320.9,-93.1 95.9,-55.8 176.7,-130.4 240,-214.6 63.2,-84.4 110,-178.9 132.6,-280.3 7.2,-32 -13,-63.8 -45,-70.9 -17.9,-4 -35.8,0.6 -49.3,11.1 l -1.9,1.4 c -75.4,59.3 -144,115.1 -212.9,164.9 -68.8,49.7 -137.2,93 -206.5,127.8 -69.6,34.5 -138.7,59.9 -211.9,82.7 -73.8,23.6 -152.1,38.9 -248.6,61.8 l -4.2,1 c -33.1,7.9 -53.5,41.1 -45.7,74.2 3.3,13.7 11,25.3 21.2,33.6"
         style="fill:#000072;fill-opacity:1;fill-rule:nonzero;stroke:none"
         id="path158" /><path
         d="m 22354.5,23394.2 c 0,-150.9 -206.1,-273.3 -460.2,-273.3 -254.2,0 -460.2,122.4 -460.2,273.3 0,151 206,228.7 460.2,228.7 254.1,0 460.2,-77.7 460.2,-228.7"
         style="fill:#000070;fill-opacity:1;fill-rule:nonzero;stroke:none"
         id="path160" /><path
         d="m 21999.9,23293.7 v -418.3 c 0,-16.2 -3.7,-31.6 -10.3,-45.2 l -3.6,-7.2 c -54.9,-112 -162.3,-196.9 -278.5,-232.4 -116.5,-36.6 -241.6,-31.5 -352.4,10.3 -111.1,40.5 -207.9,121.9 -263.2,223.5 -56.5,101.6 -69.3,216.1 -57.6,319.6 2.8,25 25.4,42.9 50.4,40.1 20.5,-2.3 36.3,-17.9 39.7,-37.3 l 0.5,-2.7 c 15.9,-90.3 47.5,-171.9 98.6,-232.8 50.5,-61.3 119.1,-101 192.8,-118.8 73.9,-17.2 152.2,-12.5 220.2,11.6 68.2,24 125.2,65.5 166.1,123.7 l -14,-52.4 v 418.3 c 0,58.4 47.3,105.7 105.7,105.7 58.3,0 105.6,-47.3 105.6,-105.7"
         style="fill:#000072;fill-opacity:1;fill-rule:nonzero;stroke:none"
         id="path162" /><path
         d="m 21999.9,23293.7 v -418.3 l -13.9,52.4 c 40.9,-58.2 97.9,-99.7 166.1,-123.7 68,-24.1 146.3,-28.8 220.2,-11.6 73.7,17.8 142.3,57.5 192.8,118.8 51.1,60.9 82.7,142.5 98.6,232.8 l 0.5,2.7 c 4.4,24.7 28,41.3 52.7,36.9 20.4,-3.6 35.1,-20.2 37.4,-39.7 11.7,-103.5 -1.1,-218 -57.6,-319.6 -55.3,-101.6 -152.2,-183 -263.3,-223.5 -110.7,-41.8 -235.8,-46.9 -352.3,-10.3 -116.2,35.5 -223.6,120.4 -278.5,232.4 l -3.4,6.8 c -7.1,14.5 -10.5,30.4 -10.6,45.6 v 418.3 c 0,58.4 47.3,105.7 105.7,105.7 58.3,0 105.6,-47.3 105.6,-105.7"
         style="fill:#000072;fill-opacity:1;fill-rule:nonzero;stroke:none"
         id="path164" /><path
         d="m 20213.6,25138.4 c -374,74.3 -751.6,-269.7 -843.4,-768.2 -91.7,-498.6 137.1,-962.9 511.1,-1037.1 374,-74.2 751.6,269.7 843.3,768.2 91.8,498.6 -137,962.9 -511,1037.1"
         style="fill:#000072;fill-opacity:1;fill-rule:nonzero;stroke:none"
         id="path166" /><path
         d="m 20170.6,24930.1 c -123.7,-33.8 -188.8,-200 -145.4,-371.2 43.4,-171.3 178.8,-282.7 302.5,-248.9 123.6,33.8 188.7,200 145.3,371.2 -43.3,171.2 -178.7,282.6 -302.4,248.9"
         style="fill:#ffffff;fill-opacity:1;fill-rule:nonzero;stroke:none"
         id="path168" /><path
         d="m 19681.9,23888.4 c -59.9,-32.9 -74.2,-126.8 -32,-209.7 42.2,-82.8 125,-123.4 184.9,-90.5 59.8,32.9 74.1,126.7 31.9,209.6 -42.2,82.9 -125,123.4 -184.8,90.6"
         style="fill:#b199c5;fill-opacity:1;fill-rule:nonzero;stroke:none"
         id="path170" /><path
         d="m 23681.3,25138.4 c 374,74.3 751.6,-269.7 843.3,-768.2 91.8,-498.6 -137,-962.9 -511,-1037.1 -374,-74.2 -751.6,269.7 -843.4,768.2 -91.7,498.6 137.1,962.9 511.1,1037.1"
         style="fill:#000072;fill-opacity:1;fill-rule:nonzero;stroke:none"
         id="path172" /><path
         d="m 23724.3,24930.1 c 123.6,-33.8 188.8,-200 145.4,-371.2 -43.4,-171.3 -178.8,-282.7 -302.5,-248.9 -123.6,33.8 -188.7,200 -145.4,371.2 43.4,171.2 178.8,282.6 302.5,248.9"
         style="fill:#ffffff;fill-opacity:1;fill-rule:nonzero;stroke:none"
         id="path174" /><path
         d="m 24213,23888.4 c 59.9,-32.9 74.2,-126.8 32,-209.7 -42.2,-82.8 -125,-123.4 -184.9,-90.5 -59.8,32.9 -74.1,126.7 -31.9,209.6 42.2,82.9 125,123.4 184.8,90.6"
         style="fill:#b199c5;fill-opacity:1;fill-rule:nonzero;stroke:none"
         id="path176" /><path
         d="M 26559.6,21009.3 H 11717.7 c -598,0 -1082.8,-484.8 -1082.8,-1082.8 v -8926.3 c 0,-598 484.8,-1082.7 1082.8,-1082.7 h 14841.9 c 598,0 1082.7,484.7 1082.7,1082.7 v 8926.3 c 0,598 -484.7,1082.8 -1082.7,1082.8"
         style="fill:#cccccc;fill-opacity:1;fill-rule:nonzero;stroke:none"
         id="path178" /><path
         d="m 27429.6,20185.8 c -197.2,265.9 -513.4,438.3 -869.9,438.3 h -14842 c -356.4,0 -672.5,-172.2 -869.9,-437.9 111.9,374.4 459.6,648.1 869.9,648.1 h 4486.1 c 215.4,-131.8 555.7,-168.4 938.9,-168.4 383.4,0 724,36.6 939.5,168.4 h 7648 c 112.7,-39.9 235.3,-75.2 364,-107.5 244.1,-61.3 474,-102.8 671.5,-102.8 116.4,0 221.5,14.5 311.5,47.8 166.8,-116.2 293,-286.9 352.4,-486"
         style="fill:#eeeeee;fill-opacity:1;fill-rule:nonzero;stroke:none"
         id="path180" /><path
         d="M 26473.7,11107.9 H 11803.5 c -142.2,0 -257.5,115.3 -257.5,257.5 v 217.9 -134.1 h 5923 2763.5 1559.2 1663.2 3276.3 v -83.8 c 0,-142.2 -115.3,-257.5 -257.5,-257.5"
         style="fill:#eeeeee;fill-opacity:1;fill-rule:nonzero;stroke:none"
         id="path182" /><path
         d="M 28352.7,8068.8 H 9929.57 c -681.35,0 -1280.15,451.7 -1467.33,1106.9 l -53.66,187.7 c -79.32,277.7 129.15,554.1 417.91,554.1 H 29450.8 c 284,0 491.7,-267.9 420.9,-542.9 l -41.1,-159.8 c -173.4,-674.4 -781.5,-1146 -1477.9,-1146"
         style="fill:#cccccc;fill-opacity:1;fill-rule:nonzero;stroke:none"
         id="path184" /><path
         d="m 8682.92,9523.7 c -24.55,34.8 -47.71,70.7 -69.4,107.7 1.85,2.6 3.75,5.2 5.7,7.8 49.51,65.6 125.05,103.3 207.27,103.3 h 2891.21 v 0 h 3609.8 l 44.5,-194.8 H 8826.42 c -50.66,0 -98.88,-8.5 -143.5,-24"
         style="fill:#eeeeee;fill-opacity:1;fill-rule:nonzero;stroke:none"
         id="path186" /><path
         d="m 29598.5,9522.1 c -45.8,16.6 -95.4,25.6 -147.7,25.6 h -6545.5 l 44.5,194.8 h 3609.8 v 0 h 2891.2 c 80.9,0 155.6,-36.7 205.2,-100.6 3.7,-4.8 7.2,-9.7 10.6,-14.7 -21.3,-36.1 -44,-71.1 -68.1,-105.1"
         style="fill:#eeeeee;fill-opacity:1;fill-rule:nonzero;stroke:none"
         id="path188" /><path
         d="M 28352.7,8243.9 H 9929.57 c -600.02,0 -1134.23,402.9 -1299.07,979.9 l -53.67,187.7 c -4.81,16.8 -7.89,33.9 -9.28,50.9 34.65,25.8 73.42,46.6 115.37,61.3 280.17,-397 740.9,-646.2 1246.88,-646.2 h 5999.1 c 73.5,-22.4 151.4,-34.3 231.9,-34.3 h 5955.7 c 80.5,0 158.3,11.9 231.9,34.3 h 6004.3 c 505.9,0 965.9,249.3 1245.8,644.6 40.3,-14.5 77.7,-34.8 111.2,-59.8 -1.2,-14.7 -3.7,-29.5 -7.4,-44.1 l -41.1,-159.8 c -153.6,-597.3 -691.7,-1014.5 -1308.5,-1014.5"
         style="fill:#8e8eb0;fill-opacity:1;fill-rule:nonzero;stroke:none"
         id="path190" /><path
         d="m 8567.55,9462.4 c -4.9,59.6 10.97,118.9 45.97,169 21.69,-37 44.85,-72.9 69.4,-107.7 -41.95,-14.7 -80.72,-35.5 -115.37,-61.3"
         style="fill:#a6a6c8;fill-opacity:1;fill-rule:nonzero;stroke:none"
         id="path192" /><path
         d="m 29709.7,9462.3 c -33.5,25 -70.9,45.3 -111.2,59.8 24.1,34 46.8,69 68.1,105.1 32.9,-49 47.9,-106.8 43.1,-164.9"
         style="fill:#a6a6c8;fill-opacity:1;fill-rule:nonzero;stroke:none"
         id="path194" /><path
         d="m 11546,11449.2 h 15185.2 v 8134 H 11546 Z"
         style="fill:#000072;fill-opacity:1;fill-rule:nonzero;stroke:none"
         id="path196" /><path
         d="M 20232.5,11449.2 H 17469 l -4210.1,8134 h 2763.5 l 4210.1,-8134"
         style="fill:#262687;fill-opacity:1;fill-rule:nonzero;stroke:none"
         id="path198" /><path
         d="m 23454.9,11449.2 h -1663.2 l -4210.1,8134 h 1662.7 l 4210.6,-8134"
         style="fill:#262687;fill-opacity:1;fill-rule:nonzero;stroke:none"
         id="path200" /><path
         d="m 8826.49,9742.5 c -82.22,0 -157.76,-37.7 -207.27,-103.3 -49.52,-65.6 -64.96,-148.6 -42.39,-227.7 l 53.67,-187.7 c 164.84,-577 699.05,-979.9 1299.07,-979.9 H 28352.7 c 616.8,0 1154.9,417.2 1308.5,1014.5 l 41.1,159.8 c 20.1,78.3 3.2,159.8 -46.3,223.7 -49.6,63.9 -124.3,100.6 -205.2,100.6 H 8826.49 M 28352.7,7893.9 H 9929.57 c -755.47,0 -1428.05,507.3 -1635.59,1233.7 l -53.66,187.7 c -53.04,185.7 -16.78,380.6 99.48,534.7 116.27,154.1 293.66,242.5 486.69,242.5 H 29450.8 c 189.8,0 365.4,-86.1 481.8,-236.1 116.3,-150 155.9,-341.5 108.6,-525.4 l -41.1,-159.8 c -193.4,-752.1 -870.8,-1277.3 -1647.4,-1277.3"
         style="fill:#000072;fill-opacity:1;fill-rule:nonzero;stroke:none"
         id="path202" /><path
         d="m 11717.7,20834.3 c -500.6,0 -907.8,-407.3 -907.8,-907.8 v -8926.3 c 0,-500.5 407.2,-907.7 907.8,-907.7 h 14841.9 c 500.5,0 907.7,407.2 907.7,907.7 v 8926.3 c 0,500.5 -407.2,907.8 -907.7,907.8 H 11717.7 M 26559.6,9742.5 H 11717.7 c -693.5,0 -1257.8,564.2 -1257.8,1257.7 v 8926.3 c 0,693.5 564.3,1257.8 1257.8,1257.8 h 14841.9 c 693.5,0 1257.7,-564.3 1257.7,-1257.8 v -8926.3 c 0,-693.5 -564.2,-1257.7 -1257.7,-1257.7"
         style="fill:#000072;fill-opacity:1;fill-rule:nonzero;stroke:none"
         id="path204" /><path
         d="m 11696,11599.2 h 14885.2 v 7834 H 11696 Z m 15035.2,-300 H 11546 c -82.8,0 -150,67.2 -150,150 v 8134 c 0,82.8 67.2,150 150,150 h 15185.2 c 82.8,0 150,-67.2 150,-150 v -8134 c 0,-82.8 -67.2,-150 -150,-150"
         style="fill:#000072;fill-opacity:1;fill-rule:nonzero;stroke:none"
         id="path206" /><path
         d="m 15629.5,9767.5 56.2,-245.5 c 50.9,-223.1 246.3,-378.8 475.1,-378.8 h 5955.7 c 228.7,0 424.1,155.7 475.1,378.8 l 56.1,245.5 h -7018.2 m 6487,-924.3 h -5955.7 c -369.6,0 -685.3,251.6 -767.6,611.9 l -98.1,429 c -10.1,44.5 0.5,91.2 29,126.9 28.5,35.7 71.6,56.5 117.3,56.5 h 7394.5 c 45.7,0 88.8,-20.8 117.3,-56.5 28.5,-35.7 39.1,-82.4 28.9,-126.9 l -98,-429 c -82.4,-360.3 -398.1,-611.9 -767.6,-611.9"
         style="fill:#000072;fill-opacity:1;fill-rule:nonzero;stroke:none"
         id="path208" /><path
         d="m 22116.5,9143.2 h -5955.7 c -228.8,0 -424.2,155.7 -475.1,378.8 l -50.5,220.5 H 22642 l -50.4,-220.5 c -51,-223.1 -246.4,-378.8 -475.1,-378.8"
         style="fill:#8e8eb0;fill-opacity:1;fill-rule:nonzero;stroke:none"
         id="path210" /><path
         d="m 22642,9742.5 h -7006.8 l -5.7,25 h 7018.2 l -5.7,-25"
         style="fill:#000071;fill-opacity:1;fill-rule:nonzero;stroke:none"
         id="path212" /><path
         d="m 22116.5,8993.2 h -5955.7 c -297.3,0 -555.1,205.5 -621.4,495.3 l -98,429 h 7394.5 l -98.1,-429 c -66.2,-289.8 -324,-495.3 -621.3,-495.3 m -6481.3,749.3 50.5,-220.5 c 50.9,-223.1 246.3,-378.8 475.1,-378.8 h 5955.7 c 228.7,0 424.1,155.7 475.1,378.8 l 50.4,220.5 5.7,25 h -7018.2 l 5.7,-25"
         style="fill:#000071;fill-opacity:1;fill-rule:nonzero;stroke:none"
         id="path214" /><path
         d="m 18322.7,21271.2 c 0,-499.6 -528.2,-605.3 -1180,-605.3 -521.3,0 -963.4,67.7 -1119.2,350.8 -39.1,70.7 -60.2,154.7 -60.2,254.5 0,499.7 528.2,904.8 1179.4,904.8 587.4,0 1074.9,-329 1164.7,-760 10,-47 15.3,-95.6 15.3,-144.8"
         style="fill:#ffffff;fill-opacity:1;fill-rule:nonzero;stroke:none"
         id="path216" /><path
         d="m 17142.7,20665.9 c -521.3,0 -963.4,67.7 -1119.2,350.8 v 0 c -4.8,30.1 -7.4,62.3 -7.4,96.1 0,49.6 5.3,97.7 15.3,145.2 206,-69.2 473.8,-90.3 767,-90.3 651.7,0 1179.9,105.7 1179.9,605.3 0,5.8 0,11.1 -0.5,16.9 147.9,-99.8 262.5,-228.2 329.6,-373.9 10,-47 15.3,-95.6 15.3,-144.8 0,-30.4 -2,-59.4 -5.8,-86.9 -22.1,-158.9 -106.1,-271.4 -234.7,-350 -215.5,-131.8 -556.1,-168.4 -939.5,-168.4"
         style="fill:#b2b2d4;fill-opacity:1;fill-rule:nonzero;stroke:none"
         id="path218" /><path
         d="m 17142.9,22025.9 c -567.7,0 -1029.6,-338.5 -1029.6,-754.6 0,-225.2 122.3,-455.4 1029.6,-455.4 907.3,0 1029.6,230.2 1029.6,455.4 0,416.1 -461.9,754.6 -1029.6,754.6 z m 0,-1510 c -363.6,0 -1329.6,0 -1329.6,755.4 0,581.5 596.4,1054.6 1329.6,1054.6 733.1,0 1329.6,-473.1 1329.6,-1054.6 0,-755.4 -965.9,-755.4 -1329.6,-755.4"
         style="fill:#000072;fill-opacity:1;fill-rule:nonzero;stroke:none"
         id="path220" /><path
         d="m 27386,21026.6 c -121.7,-484.7 -659.7,-458.5 -1291.8,-299.8 -505.6,127 -918,300.2 -1000.1,612.7 -20.7,78.2 -20.8,164.8 3.5,261.6 121.7,484.6 732.7,748.9 1364.3,590.3 569.7,-143 962.4,-580.9 944.5,-1020.7 -1.7,-48.1 -8.4,-96.5 -20.4,-144.1"
         style="fill:#ffffff;fill-opacity:1;fill-rule:nonzero;stroke:none"
         id="path222" /><path
         d="m 26765.7,20624 c -197.5,0 -427.4,41.5 -671.5,102.8 -505.6,127 -918,300.2 -1000.1,612.7 2.7,30.4 8,62.3 16.2,95.1 12.1,48.1 28.9,93.4 50.2,137.1 183,-117.3 437.5,-203 721.9,-274.3 244,-61.3 474,-102.8 671.5,-102.8 314,0 545.6,105 620.3,402.5 1.4,5.6 2.7,10.8 3.6,16.5 119.1,-132.8 199,-285.2 228.6,-442.9 -1.7,-48.1 -8.4,-96.5 -20.4,-144.1 -10.8,-43.1 -24.9,-82.2 -42.1,-117.5 -57.5,-118 -149.2,-193.7 -266.7,-237.3 -90,-33.3 -195.1,-47.8 -311.5,-47.8"
         style="fill:#b2b2d4;fill-opacity:1;fill-rule:nonzero;stroke:none"
         id="path224" /><path
         d="m 26093.7,22087.6 c -158.6,0 -310.6,-29.5 -445.6,-87.9 -213.9,-92.5 -357.7,-247 -405,-435.1 -41.4,-165.1 7.9,-289.3 160,-402.6 145.6,-108.6 383.7,-203.4 727.8,-289.7 344,-86.4 598.6,-115.4 778.3,-88.4 187.6,28 289.7,114.2 331.2,279.3 101.3,403.5 -264.3,844.3 -814.9,982.6 -111.4,27.9 -223.1,41.8 -331.8,41.8 z m 672.1,-1613.5 c -190.5,0 -420.9,35.1 -708,107.2 -388.5,97.5 -653.5,205.6 -834,340.2 -314.3,234.2 -321.2,518.7 -271.6,716.2 70.4,280.6 275.3,507 576.8,637.4 287.8,124.5 632.1,146.4 969.6,61.6 711,-178.5 1174.3,-782.6 1032.7,-1346.6 -49.5,-197.4 -190,-444.9 -577.7,-502.9 -58.1,-8.7 -120.5,-13.1 -187.8,-13.1"
         style="fill:#000072;fill-opacity:1;fill-rule:nonzero;stroke:none"
         id="path226" /><path
         d="m 4250,8101.8 c 631.05,90.6 1262.11,112.3 1893.16,123.5 631.07,12.5 1262.12,5.9 1893.18,-1 l 946.58,-5.5 946.58,-0.3 h 1893.2 7572.6 7572.7 3786.3 l 946.6,0.3 473.3,4.2 473.3,7.3 c 315.5,3.8 631.1,-2.1 946.6,-16.8 315.5,-18.9 631,-45.5 946.6,-111.7 32.2,-6.7 52.8,-38.3 46.1,-70.5 -5,-23.9 -23.7,-41.4 -46.1,-46.1 -315.6,-66.2 -631.1,-92.7 -946.6,-111.7 -315.5,-14.7 -631.1,-20.5 -946.6,-16.8 l -473.3,7.3 -473.3,4.2 -946.6,0.3 H 26968 19395.3 11822.7 9929.5 l -946.58,-0.3 -946.58,-5.5 c -631.06,-6.8 -1262.11,-13.5 -1893.18,-0.9 -631.05,11.1 -1262.11,32.8 -1893.16,123.4 -32.22,4.6 -54.58,34.5 -49.96,66.7 3.81,26.5 24.75,46.3 49.96,49.9"
         style="fill:#000072;fill-opacity:1;fill-rule:nonzero;stroke:none"
         id="path228" /></g></g></svg>
